<svg width="24" height="24" viewBox="0 0 24 24" fill="none" xmlns="http://www.w3.org/2000/svg">
<path d="M12 1C12.7601 1 13.4707 1.21201 14.0758 1.58011C13.642 2.08833 13.3194 2.69429 13.1456 3.36037C12.8211 3.13326 12.4261 3 12 3C10.8954 3 10 3.89543 10 5C10 5.11692 10.0099 5.23087 10.0288 5.34125C10.6397 5.12093 11.3046 5 12 5C12.3552 5 12.7024 5.03155 13.0386 5.09178C13.3202 7.23542 15.1105 8.90393 17.3084 8.996C17.38 9.32035 17.4177 9.65612 17.4177 10V10.6393C17.4177 12.1918 17.8093 13.7229 18.5616 15.1115L19.8842 17.5528C20.2444 18.2177 19.7205 19 18.9151 19H5.08493C4.27945 19 3.75557 18.2177 4.11579 17.5528L5.43842 15.1115C6.19069 13.7229 6.58234 12.1918 6.58234 10.6393V10C6.58234 8.58884 7.21577 7.31421 8.23454 6.4051L8.13515 6.03386C8.04696 5.70325 8 5.35586 8 5C8 2.79086 9.79086 1 12 1Z" fill="black"/>
<g opacity="0.5">
<path d="M9.59486 21C9.38782 21 9.24401 21.2052 9.33998 21.3886C9.841 22.3464 10.8441 23 11.9999 23C13.1557 23 14.1589 22.3464 14.6599 21.3886C14.7559 21.2052 14.6121 21 14.405 21H9.59486Z" fill="black"/>
<path d="M17.5 7C18.8807 7 20 5.88071 20 4.5C20 3.11929 18.8807 2 17.5 2C16.1193 2 15 3.11929 15 4.5C15 5.88071 16.1193 7 17.5 7Z" fill="black"/>
</g>
</svg>
