<svg width="24" height="24" viewBox="0 0 24 24" fill="none" xmlns="http://www.w3.org/2000/svg">
<path fill-rule="evenodd" clip-rule="evenodd" d="M21 17C21 14.7909 19.2091 13 17 13C14.7909 13 13 14.7909 13 17C13 19.2091 14.7909 21 17 21C19.2091 21 21 19.2091 21 17ZM14.9697 14.9697C15.2626 14.6768 15.7374 14.6768 16.0303 14.9697L17 15.9393L17.9697 14.9697C18.2626 14.6768 18.7374 14.6768 19.0303 14.9697C19.3232 15.2626 19.3232 15.7374 19.0303 16.0303L18.0607 17L19.0303 17.9697C19.3232 18.2626 19.3232 18.7374 19.0303 19.0303C18.7374 19.3232 18.2626 19.3232 17.9697 19.0303L17 18.0607L16.0303 19.0303C15.7374 19.3232 15.2626 19.3232 14.9697 19.0303C14.6768 18.7374 14.6768 18.2626 14.9697 17.9697L15.9393 17L14.9697 16.0303C14.6768 15.7374 14.6768 15.2626 14.9697 14.9697Z" fill="black"/>
<path opacity="0.5" fill-rule="evenodd" clip-rule="evenodd" d="M12 3H6C4.34315 3 3 4.34315 3 6V19.5C3 19.7761 3.22386 20 3.5 20H6.5C6.77614 20 7 19.7761 7 19.5V15C7 14.4477 7.44772 14 8 14H10C10.5523 14 11 14.4477 11 15V17V19.5C11 19.7761 11.2239 20 11.5 20H11.8027C11.2922 19.1175 11 18.0929 11 17C11 14.3876 12.6696 12.1651 15 11.3414V6C15 4.34315 13.6569 3 12 3ZM6 5.5C5.44772 5.5 5 5.94772 5 6.5C5 7.05228 5.44772 7.5 6 7.5H7C7.55228 7.5 8 7.05228 8 6.5C8 5.94772 7.55228 5.5 7 5.5H6ZM11 5.5C10.4477 5.5 10 5.94772 10 6.5C10 7.05228 10.4477 7.5 11 7.5H12C12.5523 7.5 13 7.05228 13 6.5C13 5.94772 12.5523 5.5 12 5.5H11ZM6 9.5C5.44772 9.5 5 9.94772 5 10.5C5 11.0523 5.44772 11.5 6 11.5H7C7.55228 11.5 8 11.0523 8 10.5C8 9.94772 7.55228 9.5 7 9.5H6ZM11 9.5C10.4477 9.5 10 9.94772 10 10.5C10 11.0523 10.4477 11.5 11 11.5H12C12.5523 11.5 13 11.0523 13 10.5C13 9.94772 12.5523 9.5 12 9.5H11Z" fill="black"/>
</svg>
