<svg width="24" height="24" viewBox="0 0 24 24" fill="none" xmlns="http://www.w3.org/2000/svg">
<path d="M8.71497 2.09628C8.89488 2.15423 9 2.33229 9 2.52131V7.00001C9 9.20915 10.7909 11 13 11H16.5148C16.7175 11 16.906 11.1214 16.9507 11.3191C16.9833 11.4629 17 11.6109 17 11.7604V12.2664C17 12.4007 16.943 12.5272 16.8596 12.6324C16.6345 12.9166 16.5 13.2759 16.5 13.6667C16.5 14.1269 16.1269 14.5 15.6667 14.5H10C8.89543 14.5 8 15.3954 8 16.5C8 17.6046 8.89543 18.5 10 18.5H15.6667C16.1269 18.5 16.5 18.8731 16.5 19.3333C16.5 19.5603 16.5454 19.7766 16.6275 19.9738C16.6907 20.1256 16.7102 20.2986 16.631 20.4427C16.1209 21.3709 15.1339 22 14 22H5C3.34315 22 2 20.6569 2 19V5C2 3.34315 3.34315 2 5 2H8.10187C8.31221 2 8.51886 2.03312 8.71497 2.09628Z" fill="black"/>
<g opacity="0.5">
<path d="M14.6655 9.00007C14.8812 9.00007 14.9957 8.7452 14.8524 8.58398L11.4369 4.74152C11.2841 4.5697 11 4.67773 11 4.90761V7.00007C11 8.10464 11.8954 9.00007 13 9.00007H14.6655Z" fill="black"/>
<path d="M19.2071 13.293C18.8166 12.9024 18.1834 12.9024 17.7929 13.293C17.4024 13.6835 17.4024 14.3166 17.7929 14.7072L18.5858 15.5001H10C9.44772 15.5001 9 15.9478 9 16.5001C9 17.0523 9.44772 17.5001 10 17.5001H18.5858L17.7929 18.293C17.4024 18.6835 17.4024 19.3166 17.7929 19.7072C18.1834 20.0977 18.8166 20.0977 19.2071 19.7072L21.7071 17.2072C22.0976 16.8166 22.0976 16.1835 21.7071 15.793L19.2071 13.293Z" fill="black"/>
</g>
</svg>
