<svg width="24" height="24" viewBox="0 0 24 24" fill="none" xmlns="http://www.w3.org/2000/svg">
<path d="M11.715 2.09628C11.8949 2.15423 12 2.33229 12 2.52131V7.00001C12 9.20915 13.7909 11 16 11H19.5148C19.7175 11 19.906 11.1214 19.9507 11.3191C19.9833 11.4629 20 11.6109 20 11.7604V19C20 20.6569 18.6569 22 17 22H7C5.34315 22 4 20.6569 4 19V17.5V7.5V5C4 3.34315 5.34315 2 7 2H11.1019C11.3122 2 11.5189 2.03312 11.715 2.09628Z" fill="black"/>
<path opacity="0.5" d="M17.6655 9.00007C17.8812 9.00007 17.9957 8.7452 17.8524 8.58398L14.4369 4.74152C14.2841 4.5697 14 4.67773 14 4.90761V7.00007C14 8.10464 14.8954 9.00007 16 9.00007H17.6655Z" fill="black"/>
</svg>
