<svg width="24" height="24" viewBox="0 0 24 24" fill="none" xmlns="http://www.w3.org/2000/svg">
<path fill-rule="evenodd" clip-rule="evenodd" d="M13.0285 2H10.9715C10.435 2 10 2.43497 10 2.97154C10 3.42037 9.69037 3.80515 9.26537 3.94946C8.91325 4.06904 8.57149 4.21107 8.24181 4.37384C7.83917 4.57264 7.34791 4.51949 7.03039 4.20197C6.65084 3.82241 6.03545 3.82241 5.6559 4.20197L4.20197 5.6559C3.82241 6.03546 3.82241 6.65084 4.20197 7.03039C4.51949 7.34791 4.57264 7.83917 4.37384 8.24181C4.21107 8.57149 4.06904 8.91325 3.94946 9.26537C3.80515 9.69036 3.42037 10 2.97154 10C2.43497 10 2 10.435 2 10.9715V13.0285C2 13.565 2.43497 14 2.97154 14C3.42037 14 3.80515 14.3096 3.94946 14.7346C4.06904 15.0868 4.21107 15.4285 4.37385 15.7582C4.57265 16.1608 4.51949 16.6521 4.20197 16.9696C3.82242 17.3492 3.82242 17.9646 4.20197 18.3441L4.92893 19.0711L9.17157 14.8284C8.44771 14.1046 8 13.1046 8 12C8 9.79086 9.79086 8 12 8C13.1046 8 14.1046 8.44772 14.8284 9.17158L19.0711 4.92893L18.3441 4.20197C17.9646 3.82242 17.3492 3.82242 16.9696 4.20197C16.6521 4.51949 16.1608 4.57265 15.7582 4.37385C15.4285 4.21107 15.0868 4.06904 14.7346 3.94946C14.3096 3.80515 14 3.42037 14 2.97154C14 2.43497 13.565 2 13.0285 2Z" fill="#121A26"/>
<path opacity="0.5" d="M19.7978 7.03018C20.1774 6.65062 20.1774 6.03524 19.7978 5.65568L19.0708 4.92871L14.8282 9.17136C15.5521 9.89522 15.9998 10.8952 15.9998 11.9998C15.9998 14.2089 14.2089 15.9998 11.9998 15.9998C10.8952 15.9998 9.89521 15.5521 9.17135 14.8282L4.92871 19.0708L5.65569 19.7978C6.03524 20.1774 6.65062 20.1774 7.03018 19.7978C7.3477 19.4803 7.83896 19.4271 8.2416 19.6259C8.57127 19.7887 8.91303 19.9307 9.26515 20.0503C9.69014 20.1946 9.99978 20.5794 9.99978 21.0282C9.99978 21.5648 10.4348 21.9998 10.9713 21.9998H13.0282C13.5648 21.9998 13.9998 21.5648 13.9998 21.0282C13.9998 20.5794 14.3094 20.1946 14.7344 20.0503C15.0865 19.9307 15.4283 19.7887 15.758 19.6259C16.1606 19.4271 16.6519 19.4803 16.9694 19.7978C17.3489 20.1774 17.9643 20.1774 18.3439 19.7978L19.7978 18.3439C20.1774 17.9643 20.1774 17.3489 19.7978 16.9694C19.4803 16.6519 19.4271 16.1606 19.6259 15.758C19.7887 15.4283 19.9307 15.0865 20.0503 14.7344C20.1946 14.3094 20.5794 13.9998 21.0282 13.9998C21.5648 13.9998 21.9998 13.5648 21.9998 13.0282V10.9713C21.9998 10.4348 21.5648 9.99978 21.0282 9.99978C20.5794 9.99978 20.1946 9.69015 20.0503 9.26515C19.9307 8.91303 19.7887 8.57128 19.6259 8.2416C19.4271 7.83896 19.4803 7.3477 19.7978 7.03018Z" fill="#121A26"/>
</svg>
