<svg width="24" height="24" viewBox="0 0 24 24" fill="none" xmlns="http://www.w3.org/2000/svg">
<path d="M17.2071 7.79289C16.8166 7.40237 16.1834 7.40237 15.7929 7.79289C15.4024 8.18342 15.4024 8.81658 15.7929 9.20711L17.5858 11H10C9.44772 11 9 11.4477 9 12C9 12.5523 9.44772 13 10 13H17.5858L15.7929 14.7929C15.4024 15.1834 15.4024 15.8166 15.7929 16.2071C16.1834 16.5976 16.8166 16.5976 17.2071 16.2071L20.7071 12.7071C21.0976 12.3166 21.0976 11.6834 20.7071 11.2929L17.2071 7.79289Z" fill="black"/>
<path opacity="0.5" d="M15.3745 3.65441C12.1287 2.34354 8.27002 3.00214 5.63604 5.63611C2.12132 9.15083 2.12132 14.8493 5.63604 18.364C8.27002 20.998 12.1287 21.6566 15.3745 20.3457C15.8866 20.1389 16.134 19.5561 15.9272 19.044C15.7204 18.5319 15.1376 18.2844 14.6255 18.4913C12.0974 19.5123 9.09694 18.9965 7.05025 16.9498C4.31658 14.2162 4.31658 9.784 7.05025 7.05033C9.09694 5.00364 12.0974 4.48786 14.6255 5.50888C15.1376 5.7157 15.7204 5.46823 15.9272 4.95613C16.134 4.44403 15.8866 3.86124 15.3745 3.65441Z" fill="black"/>
</svg>
