<svg width="24" height="24" viewBox="0 0 24 24" fill="none" xmlns="http://www.w3.org/2000/svg">
<path fill-rule="evenodd" clip-rule="evenodd" d="M6 5H18C19.6569 5 21 6.34315 21 8V11.6344C21 11.9794 20.6577 12.2215 20.321 12.1459C19.8959 12.0504 19.4539 12 19 12C15.6863 12 13 14.6863 13 18C13 18.139 13.0047 18.2768 13.014 18.4134C13.035 18.7219 12.8013 19 12.4921 19H6C4.34315 19 3 17.6569 3 16V8C3 6.34315 4.34315 5 6 5ZM6.44721 7.10557C5.95324 6.85858 5.35256 7.05881 5.10557 7.55279C4.85858 8.04676 5.05881 8.64744 5.55279 8.89443L9.76393 11C11.1716 11.7038 12.8284 11.7038 14.2361 11L18.4472 8.89443C18.9412 8.64744 19.1414 8.04676 18.8944 7.55279C18.6474 7.05881 18.0468 6.85858 17.5528 7.10557L13.3416 9.21115C12.4971 9.63344 11.5029 9.63344 10.6584 9.21115L6.44721 7.10557Z" fill="black"/>
<path opacity="0.5" d="M19.5 14C19.5 13.4477 19.0523 13 18.5 13C17.9477 13 17.5 13.4477 17.5 14V15.5H16C15.4477 15.5 15 15.9477 15 16.5C15 17.0523 15.4477 17.5 16 17.5H17.5V19C17.5 19.5523 17.9477 20 18.5 20C19.0523 20 19.5 19.5523 19.5 19V17.5H21C21.5523 17.5 22 17.0523 22 16.5C22 15.9477 21.5523 15.5 21 15.5H19.5V14Z" fill="black"/>
</svg>
