<svg width="24" height="24" viewBox="0 0 24 24" fill="none" xmlns="http://www.w3.org/2000/svg">
<path fill-rule="evenodd" clip-rule="evenodd" d="M4.5 8C4.22386 8 4 8.22386 4 8.5V19C4 20.6569 5.34315 22 7 22H17C18.6569 22 20 20.6569 20 19V8.5C20 8.22386 19.7761 8 19.5 8H4.5ZM8 10C7.44772 10 7 10.4477 7 11C7 11.5523 7.44772 12 8 12H16C16.5523 12 17 11.5523 17 11C17 10.4477 16.5523 10 16 10H8ZM8 14C7.44772 14 7 14.4477 7 15C7 15.5523 7.44772 16 8 16H16C16.5523 16 17 15.5523 17 15C17 14.4477 16.5523 14 16 14H8ZM8 18C7.44772 18 7 18.4477 7 19C7 19.5523 7.44772 20 8 20H13C13.5523 20 14 19.5523 14 19C14 18.4477 13.5523 18 13 18H8Z" fill="black"/>
<path opacity="0.5" d="M7 2H17C18.6569 2 20 3.34315 20 5V5.5C20 5.77614 19.7761 6 19.5 6H4.5C4.22386 6 4 5.77614 4 5.5V5C4 3.34315 5.34315 2 7 2Z" fill="black"/>
</svg>
