<svg width="24" height="24" viewBox="0 0 24 24" fill="none" xmlns="http://www.w3.org/2000/svg">
<path d="M19 3H5C3.89543 3 3 3.89147 3 4.99115V19.5012C3 19.9718 3.59518 20.1796 3.89043 19.8122L6.69976 16.3161C6.88953 16.0799 7.17684 15.9424 7.48063 15.9424H10.5C10.7761 15.9424 11 15.7186 11 15.4424V14.5C11 12.8431 12.3431 11.5 14 11.5H20.5C20.7761 11.5 21 11.2761 21 11V4.99115C21 3.89147 20.1046 3 19 3Z" fill="black"/>
<path opacity="0.5" d="M14.5 13.5H19.5C20.3284 13.5 21 14.1657 21 14.9868V20.5036C21 20.8994 20.5549 21.1355 20.2227 20.9159L18.5038 19.7801C18.1753 19.5631 17.7893 19.4472 17.3944 19.4472H14.5C13.6716 19.4472 13 18.7815 13 17.9604V14.9868C13 14.1657 13.6716 13.5 14.5 13.5Z" fill="black"/>
</svg>
