<svg width="24" height="24" viewBox="0 0 24 24" fill="none" xmlns="http://www.w3.org/2000/svg">
<path d="M22 6V8.42C22 10 21 11 19.42 11H16V4.01C16 2.9 16.91 1.99 18.02 2C19.11 2.01 20.11 2.45 20.83 3.17C21.55 3.9 22 4.9 22 6Z" fill="black"/>
<path opacity="0.5" d="M2 7V21C2 21.83 2.94 22.3 3.6 21.8L5.31 20.52C5.71 20.22 6.27 20.26 6.63 20.62L8.29 22.29C8.68 22.68 9.32 22.68 9.71 22.29L11.39 20.61C11.74 20.26 12.3 20.22 12.69 20.52L14.4 21.8C15.06 22.29 16 21.82 16 21V4C16 2.9 16.9 2 18 2H7H6C3 2 2 3.79 2 6V7Z" fill="black"/>
<path d="M11 12.26H8C7.59 12.26 7.25 12.6 7.25 13.01C7.25 13.42 7.59 13.76 8 13.76H11C11.41 13.76 11.75 13.42 11.75 13.01C11.75 12.6 11.41 12.26 11 12.26Z" fill="black"/>
<path d="M8 9.76H11C11.41 9.76 11.75 9.42 11.75 9.01C11.75 8.6 11.41 8.26 11 8.26H8C7.59 8.26 7.25 8.6 7.25 9.01C7.25 9.42 7.59 9.76 8 9.76Z" fill="black"/>
<path d="M5.97 8.01C5.44 8.01 4.97 8.46 4.97 9.01C4.97 9.56 5.41 10.01 5.97 10.01C6.53 10.01 6.97 9.56 6.97 9.01C6.97 8.45 6.52 8.01 5.97 8.01Z" fill="black"/>
<path d="M5.97 12.01C5.44 12.01 4.97 12.46 4.97 13.01C4.97 13.56 5.41 14.01 5.97 14.01C6.53 14.01 6.97 13.56 6.97 13.01C6.97 12.45 6.52 12.01 5.97 12.01Z" fill="black"/>
</svg>
