<svg width="24" height="24" viewBox="0 0 24 24" fill="none" xmlns="http://www.w3.org/2000/svg">
<path d="M15.8033 15.8033C18.7322 12.8744 18.7322 8.12563 15.8033 5.1967C12.8744 2.26777 8.12563 2.26777 5.1967 5.1967C2.26777 8.12563 2.26777 12.8744 5.1967 15.8033C8.12563 18.7322 12.8744 18.7322 15.8033 15.8033Z" fill="black"/>
<path opacity="0.5" d="M18.0841 16.6701C17.9792 16.5652 17.8067 16.5744 17.71 16.6869C17.5538 16.8685 17.3897 17.0456 17.2175 17.2177C17.0454 17.3899 16.8683 17.5541 16.6866 17.7102C16.5742 17.807 16.565 17.9794 16.6699 18.0843L19.2928 20.7072C19.6833 21.0977 20.3165 21.0977 20.707 20.7072C21.0975 20.3167 21.0975 19.6835 20.707 19.293L18.0841 16.6701Z" fill="black"/>
</svg>
