<svg width="24" height="24" viewBox="0 0 24 24" fill="none" xmlns="http://www.w3.org/2000/svg">
<path opacity="0.5" d="M19.3 7.92V13.07C19.3 16.15 17.54 17.47 14.9 17.47H6.11C5.66 17.47 5.23 17.43 4.83 17.34C4.58 17.3 4.34 17.23 4.12 17.15C2.62 16.59 1.71 15.29 1.71 13.07V7.92C1.71 4.84 3.47 3.52 6.11 3.52H14.9C17.14 3.52 18.75 4.47 19.18 6.64C19.25 7.04 19.3 7.45 19.3 7.92Z" fill="black"/>
<path d="M22.3 10.92V16.07C22.3 19.15 20.54 20.47 17.9 20.47H9.11C8.37 20.47 7.7 20.37 7.12 20.15C5.93 19.71 5.12 18.8 4.83 17.34C5.23 17.43 5.66 17.47 6.11 17.47H14.9C17.54 17.47 19.3 16.15 19.3 13.07V7.92C19.3 7.45 19.26 7.03 19.18 6.64C21.08 7.04 22.3 8.38 22.3 10.92Z" fill="black"/>
<path d="M13.14 10.5C13.14 11.96 11.96 13.14 10.5 13.14C9.04 13.14 7.86 11.96 7.86 10.5C7.86 9.04 9.04 7.86 10.5 7.86C11.96 7.86 13.14 9.04 13.14 10.5Z" fill="black"/>
<path d="M4.78 8.25C4.37 8.25 4.03 8.59 4.03 9V12C4.03 12.41 4.37 12.75 4.78 12.75C5.19 12.75 5.53 12.41 5.53 12V9C5.53 8.59 5.2 8.25 4.78 8.25Z" fill="black"/>
<path d="M16.21 8.25C15.8 8.25 15.46 8.59 15.46 9V12C15.46 12.41 15.8 12.75 16.21 12.75C16.62 12.75 16.96 12.41 16.96 12V9C16.96 8.59 16.63 8.25 16.21 8.25Z" fill="black"/>
</svg>
