<svg width="1200" height="900" viewBox="0 0 1200 900" fill="none" xmlns="http://www.w3.org/2000/svg">
  <rect width="1200" height="900" rx="44" fill="#F4FBF7"/>
  <rect x="46" y="46" width="1108" height="808" rx="36" fill="white"/>
  <rect x="88" y="92" width="1024" height="94" rx="28" fill="#024D4D"/>
  <rect x="122" y="122" width="184" height="14" rx="7" fill="#86EFAC"/>
  <rect x="122" y="152" width="310" height="16" rx="8" fill="#EAF7F2"/>
  <rect x="88" y="226" width="252" height="538" rx="32" fill="#F4FBF7" stroke="#D6ECDD" stroke-width="4"/>
  <rect x="372" y="226" width="740" height="258" rx="32" fill="#F4FBF7" stroke="#D6ECDD" stroke-width="4"/>
  <rect x="372" y="516" width="352" height="248" rx="32" fill="#024D4D"/>
  <rect x="760" y="516" width="352" height="248" rx="32" fill="#F4FBF7" stroke="#D6ECDD" stroke-width="4"/>
  <rect x="116" y="266" width="144" height="14" rx="7" fill="#A7F3D0"/>
  <rect x="116" y="310" width="196" height="86" rx="24" fill="#EAF7F2"/>
  <rect x="116" y="426" width="196" height="86" rx="24" fill="#EAF7F2"/>
  <rect x="116" y="542" width="196" height="86" rx="24" fill="#EAF7F2"/>
  <rect x="116" y="658" width="196" height="66" rx="24" fill="#024D4D"/>
  <rect x="408" y="262" width="220" height="16" rx="8" fill="#A7F3D0"/>
  <rect x="408" y="306" width="656" height="20" rx="10" fill="#CBD5E1"/>
  <rect x="408" y="348" width="574" height="20" rx="10" fill="#CBD5E1"/>
  <rect x="408" y="390" width="610" height="20" rx="10" fill="#CBD5E1"/>
  <path d="M432 441C470 412 508 398 544 398C596 398 626 452 678 452C728 452 744 370 812 370C864 370 908 420 956 420C993 420 1023 395 1052 364" stroke="#10B75C" stroke-width="12" stroke-linecap="round"/>
  <rect x="408" y="554" width="164" height="16" rx="8" fill="#A7F3D0"/>
  <rect x="408" y="596" width="264" height="20" rx="10" fill="#EAF7F2"/>
  <rect x="408" y="640" width="220" height="20" rx="10" fill="#EAF7F2"/>
  <rect x="796" y="554" width="168" height="16" rx="8" fill="#A7F3D0"/>
  <rect x="796" y="598" width="268" height="20" rx="10" fill="#CBD5E1"/>
  <rect x="796" y="640" width="214" height="20" rx="10" fill="#CBD5E1"/>
  <circle cx="1002" cy="714" r="40" fill="#10B75C"/>
</svg>
